<?xml version="1.0" standalone="no"?>
<!DOCTYPE svg PUBLIC "-//W3C//DTD SVG 20010904//EN"
 "http://www.w3.org/TR/2001/REC-SVG-20010904/DTD/svg10.dtd">
<svg version="1.0" xmlns="http://www.w3.org/2000/svg"
 width="1080.000000pt" height="720.000000pt" viewBox="0 0 1080.000000 720.000000"
 preserveAspectRatio="xMidYMid meet">

<g transform="translate(0.000000,720.000000) scale(0.100000,-0.100000)"
fill="#000000" stroke="none">
<path d="M2545 6686 c-46 -20 -73 -58 -152 -212 -160 -313 -251 -618 -299
-1004 -21 -167 -24 -618 -5 -795 24 -233 50 -386 72 -425 24 -43 83 -80 125
-80 35 0 87 30 109 63 32 50 33 79 9 257 -94 700 -27 1273 209 1773 27 59 56
107 63 107 22 0 211 -73 316 -123 424 -198 837 -552 1170 -1002 75 -102 204
-309 277 -445 7 -12 37 -16 153 -18 l146 -3 27 -77 c54 -154 112 -249 210
-348 98 -99 167 -140 285 -170 173 -44 375 33 524 198 63 70 156 243 183 339
l16 59 161 2 160 3 31 42 c16 23 65 100 108 170 192 315 479 647 755 871 226
184 494 342 743 440 168 65 147 71 208 -57 233 -491 303 -1075 210 -1760 -28
-204 -24 -243 29 -293 35 -32 48 -38 85 -38 52 0 102 30 129 76 19 33 46 192
70 414 19 182 16 649 -5 819 -47 373 -141 686 -299 994 -115 223 -149 246
-303 201 -662 -193 -1278 -661 -1749 -1328 -51 -72 -103 -148 -115 -168 l-23
-38 -72 0 c-43 0 -77 5 -84 12 -7 7 -12 30 -12 52 0 87 -48 258 -106 376 -51
104 -65 124 -148 205 -68 68 -110 100 -166 128 -132 65 -226 80 -335 52 -114
-29 -183 -71 -282 -170 -81 -82 -97 -105 -147 -206 -60 -122 -89 -221 -108
-361 l-12 -88 -55 0 -56 0 -71 108 c-411 617 -924 1069 -1500 1319 -149 64
-382 143 -422 143 -15 -1 -41 -7 -57 -14z m2939 -990 c47 -20 108 -77 151
-142 21 -31 35 -57 33 -59 -1 -2 -39 7 -84 20 -157 45 -332 40 -476 -15 -28
-11 -54 -18 -56 -16 -8 8 53 92 98 136 48 47 99 77 155 91 40 11 137 3 179
-15z m41 -361 c33 -9 99 -34 147 -57 71 -33 88 -46 93 -67 8 -41 11 -189 3
-196 -4 -4 -42 6 -85 24 -134 53 -197 66 -328 65 -129 0 -216 -18 -330 -69
-32 -14 -62 -25 -68 -25 -17 0 -1 188 18 210 24 26 153 89 226 110 82 24 242
26 324 5z m15 -447 c36 -11 95 -36 132 -54 l68 -34 -21 -53 c-55 -139 -142
-247 -237 -294 -160 -78 -338 10 -440 219 -65 132 -66 128 20 170 160 79 321
94 478 46z"/>
<path d="M2106 3010 c-16 -5 -42 -21 -57 -36 -48 -46 -119 -214 -173 -408
l-33 -118 -244 -3 c-316 -3 -497 -29 -739 -107 -202 -65 -441 -186 -495 -250
-51 -60 -25 -153 49 -178 40 -13 70 -3 157 53 287 184 639 278 1052 281 l188
1 4 -140 c3 -117 20 -256 41 -326 4 -14 -13 -17 -129 -22 -322 -16 -626 -108
-852 -260 -162 -108 -359 -307 -412 -415 -23 -48 -25 -57 -14 -92 6 -21 26
-51 43 -65 27 -23 39 -26 75 -22 52 6 66 17 148 122 81 104 211 228 302 288
215 143 450 213 773 233 l116 6 29 -68 c87 -209 231 -389 456 -570 237 -190
520 -328 787 -384 56 -12 158 -23 242 -27 590 -24 1197 301 1826 980 65 70
123 127 129 127 6 0 63 -57 126 -126 356 -394 774 -707 1138 -853 530 -212
1006 -167 1520 142 180 108 393 298 509 456 57 76 135 216 159 287 10 30 13
31 74 33 101 3 324 -18 428 -40 330 -72 591 -239 788 -504 29 -39 65 -78 82
-88 80 -47 171 11 171 110 0 46 -37 104 -134 212 -309 344 -731 521 -1243 521
-104 0 -105 0 -100 23 22 86 39 230 40 334 l0 122 76 7 c88 8 340 -1 456 -16
306 -41 562 -128 781 -267 43 -28 91 -53 106 -57 62 -14 128 43 128 111 0 51
-34 89 -134 148 -227 133 -465 214 -776 262 -90 14 -174 18 -391 17 l-276 0
-18 75 c-36 155 -134 402 -177 448 -12 12 -40 30 -64 39 -54 21 -100 7 -142
-41 -56 -63 -54 -95 22 -277 89 -216 112 -366 95 -635 -6 -93 -16 -198 -24
-235 -28 -134 -130 -331 -252 -481 -136 -168 -282 -289 -460 -380 -205 -104
-353 -144 -563 -153 -281 -12 -548 63 -840 235 -308 183 -562 411 -952 857
-18 21 -18 21 62 68 109 63 218 168 259 249 58 115 67 270 17 302 -35 23 -226
63 -363 76 -94 9 -153 9 -246 0 -132 -13 -339 -55 -372 -76 -13 -8 -25 -33
-34 -73 -41 -186 83 -369 337 -496 l53 -27 -78 -92 c-116 -136 -423 -441 -545
-540 -297 -243 -606 -404 -883 -462 -121 -26 -329 -30 -450 -11 -190 32 -396
115 -572 232 -104 69 -254 217 -345 338 -72 96 -163 265 -196 362 -30 87 -46
252 -45 459 0 209 15 280 102 496 35 85 51 138 51 169 0 98 -86 167 -174 140z"/>
</g>
</svg>
