<svg id="10015.io" viewBox="0 0 480 480" xmlns="http://www.w3.org/2000/svg" xmlns:xlink="http://www.w3.org/1999/xlink" >
	<path fill="#474bff" d="M457.5,274.5Q451,309,440.5,343.5Q430,378,401.5,400.5Q373,423,343.5,445Q314,467,277,466Q240,465,206.5,456Q173,447,139,436.5Q105,426,80.5,400Q56,374,43,341Q30,308,16,274Q2,240,17,206Q32,172,42.5,138Q53,104,79,79Q105,54,138,41Q171,28,205.5,17.5Q240,7,273.5,19.5Q307,32,341.5,42.5Q376,53,398.5,80.5Q421,108,444.5,137Q468,166,466,203Q464,240,457.5,274.5Z" />
</svg>